<?xml version="1.0" standalone="no"?>
<!DOCTYPE svg PUBLIC "-//W3C//DTD SVG 20010904//EN"
 "http://www.w3.org/TR/2001/REC-SVG-20010904/DTD/svg10.dtd">
<svg version="1.0" xmlns="http://www.w3.org/2000/svg"
 width="1200.000000pt" height="1200.000000pt" viewBox="0 0 1200.000000 1200.000000"
 preserveAspectRatio="xMidYMid meet">

<g transform="translate(0.000000,1200.000000) scale(0.100000,-0.100000)"
fill="#000000" stroke="none">
<path d="M4855 8536 c-80 -19 -105 -29 -169 -70 -89 -57 -169 -181 -195 -304
-8 -37 -11 -325 -11 -967 l0 -915 -155 0 -155 0 0 273 c0 296 -6 340 -57 447
-35 73 -133 169 -205 203 -135 64 -265 60 -407 -11 -63 -32 -151 -124 -186
-197 -46 -92 -55 -167 -55 -452 l0 -262 -329 -3 c-315 -3 -331 -4 -357 -24
-45 -33 -67 -70 -71 -121 -6 -61 23 -125 70 -153 32 -20 73 -20 3270 -20 2738
0 3243 2 3271 14 49 20 79 69 84 135 4 62 -17 105 -71 145 -28 21 -37 21 -663
24 l-634 3 0 917 c0 1007 1 986 -61 1102 -42 80 -82 125 -148 167 -84 54 -153
76 -241 76 -224 -1 -407 -159 -449 -388 -7 -39 -11 -360 -11 -967 l0 -908
-155 0 -154 0 -3 698 -3 697 -23 64 c-62 171 -176 275 -340 309 -69 14 -91 15
-153 4 -147 -25 -263 -111 -330 -243 -58 -117 -59 -121 -59 -856 l0 -673 -155
0 -155 0 0 918 c0 1007 1 986 -61 1102 -42 80 -82 125 -148 167 -108 69 -220
93 -326 69z m161 -335 c17 -11 41 -39 53 -63 21 -44 21 -45 21 -951 l0 -907
-155 0 -155 0 0 907 c0 886 0 908 20 947 28 58 73 86 135 86 31 0 62 -7 81
-19z m2440 0 c17 -11 41 -39 53 -63 21 -44 21 -45 21 -951 l0 -907 -155 0
-155 0 0 907 c0 886 0 908 20 947 28 58 73 86 135 86 31 0 62 -7 81 -19z
m-1217 -489 c14 -10 34 -31 45 -46 21 -27 21 -38 24 -707 l2 -679 -155 0 -155
0 0 660 c0 704 0 699 48 754 43 47 139 57 191 18z m-2440 -810 c14 -10 34 -31
45 -46 20 -26 21 -43 24 -302 l3 -274 -156 0 -155 0 0 260 c0 236 2 264 19
298 34 67 77 92 150 86 25 -1 56 -11 70 -22z"/>
</g>
</svg>
